<?xml version="1.0" encoding="UTF-8"?>
<!DOCTYPE svg PUBLIC "-//W3C//DTD SVG 1.1//EN" "http://www.w3.org/Graphics/SVG/1.1/DTD/svg11.dtd">
<svg xmlns="http://www.w3.org/2000/svg" version="1.1" width="540px" height="1170px" style="shape-rendering:geometricPrecision; text-rendering:geometricPrecision; image-rendering:optimizeQuality; fill-rule:evenodd; clip-rule:evenodd" xmlns:xlink="http://www.w3.org/1999/xlink">
<g><path style="opacity:1" fill="#000000" d="M -0.5,-0.5 C 179.5,-0.5 359.5,-0.5 539.5,-0.5C 539.5,15.8333 539.5,32.1667 539.5,48.5C 359.5,48.5 179.5,48.5 -0.5,48.5C -0.5,32.1667 -0.5,15.8333 -0.5,-0.5 Z"/></g>
<g><path style="opacity:1" fill="#e3e3e3" d="M 112.5,15.5 C 116.106,15.2108 119.606,15.5442 123,16.5C 123.806,22.0838 123.639,27.5838 122.5,33C 118.909,33.7886 115.409,33.6219 112,32.5C 111.215,26.7507 111.382,21.084 112.5,15.5 Z"/></g>
<g><path style="opacity:1" fill="#f3f3f3" d="M 470.5,15.5 C 475.982,14.5952 480.649,16.0952 484.5,20C 481.324,24.0065 477.991,27.8398 474.5,31.5C 471.133,27.9209 468.133,24.0876 465.5,20C 467.043,18.2871 468.709,16.7871 470.5,15.5 Z"/></g>
<g><path style="opacity:1" fill="#f6f6f6" d="M 495.5,15.5 C 497.929,15.8844 500.263,16.551 502.5,17.5C 502.5,22.5 502.5,27.5 502.5,32.5C 499.167,32.5 495.833,32.5 492.5,32.5C 492.5,27.5 492.5,22.5 492.5,17.5C 494.179,17.7148 495.179,17.0481 495.5,15.5 Z"/></g>
<g><path style="opacity:1" fill="#e0e0e0" d="M 38.5,18.5 C 40.4228,22.0293 41.0894,26.0293 40.5,30.5C 39.0424,27.4031 37.709,24.0698 36.5,20.5C 36.8555,19.4777 37.5222,18.811 38.5,18.5 Z"/></g>
<g><path style="opacity:1" fill="#eaeaea" d="M 91.5,32.5 C 90.3117,31.6364 89.1451,30.6364 88,29.5C 87.5521,31.4089 88.3855,32.5756 90.5,33C 88.8659,33.4935 87.1992,33.6602 85.5,33.5C 81.9992,32.1636 79.6659,29.6636 78.5,26C 78.7591,24.7387 79.4258,23.7387 80.5,23C 78.3143,22.3964 78.1476,21.2297 80,19.5C 83.1463,14.8413 87.313,13.508 92.5,15.5C 94.4728,16.6622 96.3061,18.6622 98,21.5C 99.3845,27.412 97.2178,31.0786 91.5,32.5 Z"/></g>
<g><path style="opacity:1" fill="#cbcbcb" d="M 43.5,19.5 C 46.9571,19.6672 47.2904,20.6672 44.5,22.5C 43.6143,21.675 43.281,20.675 43.5,19.5 Z"/></g>
<g><path style="opacity:1" fill="#121212" d="M 86.5,21.5 C 88.3084,21.4914 89.9751,21.9914 91.5,23C 92.4506,23.7175 92.6172,24.5509 92,25.5C 86.5694,28.8672 84.7361,27.5339 86.5,21.5 Z"/></g>
<g><path style="opacity:1" fill="#717171" d="M 38.5,18.5 C 39.209,17.596 40.209,17.2627 41.5,17.5C 41.8182,22.0323 41.4849,26.3656 40.5,30.5C 41.0894,26.0293 40.4228,22.0293 38.5,18.5 Z"/></g>
<g><path style="opacity:1" fill="#e1e1e1" d="M 50.5,17.5 C 52.7224,17.178 54.5557,17.8446 56,19.5C 55.3521,22.0099 55.5188,24.5099 56.5,27C 56.4148,28.1074 56.0814,29.1074 55.5,30C 53.2305,30.7581 51.0639,30.5914 49,29.5C 48.2506,28.365 48.4173,27.365 49.5,26.5C 50.8415,28.0049 52.5082,28.6715 54.5,28.5C 54.756,26.0876 53.756,24.4209 51.5,23.5C 52.5,22.8333 53.5,22.1667 54.5,21.5C 54.3333,21.1667 54.1667,20.8333 54,20.5C 52.2784,20.0385 50.445,19.8718 48.5,20C 49.3805,19.2917 50.0472,18.4584 50.5,17.5 Z"/></g>
<g><path style="opacity:1" fill="#282828" d="M 497.5,20.5 C 498.234,21.8775 498.901,23.3775 499.5,25C 498.54,26.4194 497.707,27.9194 497,29.5C 495.032,26.3019 495.199,23.3019 497.5,20.5 Z"/></g>
<g><path style="opacity:1" fill="#171717" d="M 113.5,18.5 C 116.167,18.5 118.833,18.5 121.5,18.5C 121.5,22.5 121.5,26.5 121.5,30.5C 118.833,30.5 116.167,30.5 113.5,30.5C 113.5,26.5 113.5,22.5 113.5,18.5 Z"/></g>
<g><path style="opacity:1" fill="#d3d3d3" d="M 116.5,21.5 C 118.216,22.5739 119.216,24.2406 119.5,26.5C 118.167,29.1667 116.833,29.1667 115.5,26.5C 116.309,24.9291 116.643,23.2624 116.5,21.5 Z"/></g>
<g><path style="opacity:1" fill="#d6d6d6" d="M 43.5,26.5 C 46.5476,26.494 47.0476,27.494 45,29.5C 43.9614,28.7562 43.4614,27.7562 43.5,26.5 Z"/></g>
<g><path style="opacity:1" fill="#dadada" d="M 59.5,17.5 C 61.924,17.1924 64.2573,17.5258 66.5,18.5C 64.604,19.4656 62.604,19.7989 60.5,19.5C 60.5,20.5 60.5,21.5 60.5,22.5C 67.004,22.1377 68.6707,24.6377 65.5,30C 62.975,30.8959 60.8083,30.3959 59,28.5C 58.3123,27.6683 58.479,27.0016 59.5,26.5C 60.8415,28.0049 62.5082,28.6715 64.5,28.5C 64.5,27.1667 64.5,25.8333 64.5,24.5C 62.396,24.7989 60.396,24.4656 58.5,23.5C 59.3482,21.5914 59.6816,19.5914 59.5,17.5 Z"/></g>
<g><path style="opacity:1" fill="#7f7f7f" d="M 91.5,32.5 C 91.0296,33.6935 90.0296,34.3601 88.5,34.5C 87.2739,34.4805 86.2739,34.1471 85.5,33.5C 87.1992,33.6602 88.8659,33.4935 90.5,33C 88.3855,32.5756 87.5521,31.4089 88,29.5C 89.1451,30.6364 90.3117,31.6364 91.5,32.5 Z"/></g>
<g><path style="opacity:1" fill="#f9f9f9" d="M -0.5,48.5 C 179.5,48.5 359.5,48.5 539.5,48.5C 539.5,422.167 539.5,795.833 539.5,1169.5C 359.5,1169.5 179.5,1169.5 -0.5,1169.5C -0.5,795.833 -0.5,422.167 -0.5,48.5 Z"/></g>
<g><path style="opacity:1" fill="#161616" d="M 225.5,581.5 C 231.82,581.32 234.32,584.32 233,590.5C 229.157,594.729 225.823,594.395 223,589.5C 222.018,586.225 222.851,583.559 225.5,581.5 Z"/></g>
<g><path style="opacity:1" fill="#7f7f7f" d="M 162.5,584.5 C 167.975,583.511 173.642,583.178 179.5,583.5C 179.737,584.791 179.404,585.791 178.5,586.5C 173.604,584.554 168.271,583.887 162.5,584.5 Z"/></g>
<g><path style="opacity:1" fill="#7f7f7f" d="M 212.5,584.5 C 206.402,583.883 200.735,584.55 195.5,586.5C 194.596,585.791 194.263,584.791 194.5,583.5C 200.69,583.177 206.69,583.51 212.5,584.5 Z"/></g>
<g><path style="opacity:1" fill="#020202" d="M 243.5,582.5 C 247.5,582.5 251.5,582.5 255.5,582.5C 255.17,599.342 255.503,616.008 256.5,632.5C 256.918,633.222 257.584,633.722 258.5,634C 253.5,634.667 248.5,634.667 243.5,634C 244.737,633.768 245.737,633.268 246.5,632.5C 246.5,616.5 246.5,600.5 246.5,584.5C 245.5,584.5 244.5,584.5 243.5,584.5C 243.5,583.833 243.5,583.167 243.5,582.5 Z"/></g>
<g><path style="opacity:1" fill="#6d6d6d" d="M 243.5,582.5 C 247.634,581.515 251.968,581.182 256.5,581.5C 256.5,598.5 256.5,615.5 256.5,632.5C 255.503,616.008 255.17,599.342 255.5,582.5C 251.5,582.5 247.5,582.5 243.5,582.5 Z"/></g>
<g><path style="opacity:1" fill="#050505" d="M 162.5,584.5 C 168.271,583.887 173.604,584.554 178.5,586.5C 177.833,586.5 177.167,586.5 176.5,586.5C 175.509,592.979 175.176,599.646 175.5,606.5C 183.352,606.825 191.018,606.492 198.5,605.5C 198.5,599.167 198.5,592.833 198.5,586.5C 197.5,586.5 196.5,586.5 195.5,586.5C 200.735,584.55 206.402,583.883 212.5,584.5C 211.817,586.176 210.483,586.843 208.5,586.5C 208.5,601.833 208.5,617.167 208.5,632.5C 209.5,632.5 210.5,632.5 211.5,632.5C 209.257,633.812 206.59,634.478 203.5,634.5C 200.41,634.478 197.743,633.812 195.5,632.5C 196.5,632.5 197.5,632.5 198.5,632.5C 198.5,625.5 198.5,618.5 198.5,611.5C 190.833,611.5 183.167,611.5 175.5,611.5C 175.5,618.5 175.5,625.5 175.5,632.5C 176.5,632.5 177.5,632.5 178.5,632.5C 176.257,633.812 173.59,634.478 170.5,634.5C 167.41,634.478 164.743,633.812 162.5,632.5C 163.5,632.5 164.5,632.5 165.5,632.5C 165.5,617.167 165.5,601.833 165.5,586.5C 164.5,586.5 163.5,586.5 162.5,586.5C 162.5,585.833 162.5,585.167 162.5,584.5 Z"/></g>
<g><path style="opacity:1" fill="#bcbcbc" d="M 243.5,584.5 C 244.5,584.5 245.5,584.5 246.5,584.5C 246.5,600.5 246.5,616.5 246.5,632.5C 246.167,632.5 245.833,632.5 245.5,632.5C 246.128,616.26 245.461,600.26 243.5,584.5 Z"/></g>
<g><path style="opacity:1" fill="#c6c6c6" d="M 162.5,586.5 C 163.5,586.5 164.5,586.5 165.5,586.5C 165.5,601.833 165.5,617.167 165.5,632.5C 164.5,632.5 163.5,632.5 162.5,632.5C 163.8,625.067 164.466,617.401 164.5,609.5C 164.466,601.599 163.8,593.933 162.5,586.5 Z"/></g>
<g><path style="opacity:1" fill="#0e0e0e" d="M 279.5,598.5 C 282.028,599.166 284.694,599.832 287.5,600.5C 284.694,601.168 282.028,601.834 279.5,602.5C 279.334,611.506 279.5,620.506 280,629.5C 280.5,630 281,630.5 281.5,631C 284.553,631.179 287.553,631.679 290.5,632.5C 285.15,635.276 279.484,636.109 273.5,635C 271.951,633.786 270.785,632.286 270,630.5C 269.5,621.173 269.334,611.839 269.5,602.5C 267.631,601.835 265.631,601.169 263.5,600.5C 265.631,599.831 267.631,599.165 269.5,598.5C 269.5,595.833 269.5,593.167 269.5,590.5C 272.877,590.041 276.211,589.374 279.5,588.5C 279.5,591.833 279.5,595.167 279.5,598.5 Z"/></g>
<g><path style="opacity:1" fill="#5e5e5e" d="M 232.5,599.5 C 228.486,599.334 224.486,599.501 220.5,600C 221.416,600.278 222.082,600.778 222.5,601.5C 221.5,601.5 220.5,601.5 219.5,601.5C 219.5,600.5 219.5,599.5 219.5,598.5C 224.032,598.182 228.366,598.515 232.5,599.5 Z"/></g>
<g><path style="opacity:1" fill="#616161" d="M 269.5,598.5 C 267.631,599.165 265.631,599.831 263.5,600.5C 265.631,601.169 267.631,601.835 269.5,602.5C 267.167,602.5 264.833,602.5 262.5,602.5C 262.5,601.167 262.5,599.833 262.5,598.5C 264.833,598.5 267.167,598.5 269.5,598.5 Z"/></g>
<g><path style="opacity:1" fill="#121212" d="M 306.5,597.5 C 326.595,596.75 334.428,606.084 330,625.5C 327.342,631.259 322.842,634.759 316.5,636C 298.148,637.981 290.315,629.814 293,611.5C 295.017,604.318 299.517,599.652 306.5,597.5 Z"/></g>
<g><path style="opacity:1" fill="#6a6a6a" d="M 351.5,602.5 C 351.44,603.043 351.107,603.376 350.5,603.5C 349.571,602.311 349.238,600.978 349.5,599.5C 345.029,598.911 341.029,599.577 337.5,601.5C 336.596,600.791 336.263,599.791 336.5,598.5C 341.167,598.5 345.833,598.5 350.5,598.5C 350.232,600.099 350.566,601.432 351.5,602.5 Z"/></g>
<g><path style="opacity:1" fill="#111111" d="M 232.5,599.5 C 232.5,610.5 232.5,621.5 232.5,632.5C 234.179,632.285 235.179,632.952 235.5,634.5C 230.489,634.666 225.489,634.499 220.5,634C 221.416,633.722 222.082,633.222 222.5,632.5C 222.5,622.167 222.5,611.833 222.5,601.5C 222.082,600.778 221.416,600.278 220.5,600C 224.486,599.501 228.486,599.334 232.5,599.5 Z"/></g>
<g><path style="opacity:1" fill="#0f0f0f" d="M 374.5,632.5 C 374.918,633.222 375.584,633.722 376.5,634C 371.5,634.667 366.5,634.667 361.5,634C 362.056,633.617 362.389,633.117 362.5,632.5C 363.825,628.724 364.491,624.557 364.5,620C 364.333,615.833 364.167,611.667 364,607.5C 359.745,602.563 355.078,602.229 350,606.5C 349.176,615.343 349.343,624.01 350.5,632.5C 350.918,633.222 351.584,633.722 352.5,634C 347.5,634.667 342.5,634.667 337.5,634C 338.416,633.722 339.082,633.222 339.5,632.5C 340.142,621.779 339.475,611.446 337.5,601.5C 341.029,599.577 345.029,598.911 349.5,599.5C 349.238,600.978 349.571,602.311 350.5,603.5C 351.107,603.376 351.44,603.043 351.5,602.5C 356.155,598.789 361.489,597.622 367.5,599C 370.728,600.563 372.895,603.063 374,606.5C 374.5,615.16 374.666,623.827 374.5,632.5 Z"/></g>
<g><path style="opacity:1" fill="#737373" d="M 279.5,598.5 C 282.5,598.5 285.5,598.5 288.5,598.5C 288.5,599.833 288.5,601.167 288.5,602.5C 285.5,602.5 282.5,602.5 279.5,602.5C 282.028,601.834 284.694,601.168 287.5,600.5C 284.694,599.832 282.028,599.166 279.5,598.5 Z"/></g>
<g><path style="opacity:1" fill="#f2f2f2" d="M 308.5,600.5 C 313.814,599.74 317.647,601.74 320,606.5C 320.667,613.5 320.667,620.5 320,627.5C 317.647,632.426 313.814,634.26 308.5,633C 306.383,631.269 304.883,629.102 304,626.5C 303.333,619.833 303.333,613.167 304,606.5C 305.332,604.34 306.832,602.34 308.5,600.5 Z"/></g>
<g><path style="opacity:1" fill="#b1b1b1" d="M 176.5,586.5 C 176.5,592.833 176.5,599.167 176.5,605.5C 183.833,605.5 191.167,605.5 198.5,605.5C 191.018,606.492 183.352,606.825 175.5,606.5C 175.176,599.646 175.509,592.979 176.5,586.5 Z"/></g>
<g><path style="opacity:1" fill="#6b6b6b" d="M 162.5,632.5 C 164.743,633.812 167.41,634.478 170.5,634.5C 173.59,634.478 176.257,633.812 178.5,632.5C 179.404,633.209 179.737,634.209 179.5,635.5C 173.5,635.5 167.5,635.5 161.5,635.5C 161.263,634.209 161.596,633.209 162.5,632.5 Z"/></g>
<g><path style="opacity:1" fill="#636363" d="M 195.5,632.5 C 197.743,633.812 200.41,634.478 203.5,634.5C 206.59,634.478 209.257,633.812 211.5,632.5C 212.404,633.209 212.737,634.209 212.5,635.5C 206.5,635.5 200.5,635.5 194.5,635.5C 194.263,634.209 194.596,633.209 195.5,632.5 Z"/></g>
<g><path style="opacity:1" fill="#626262" d="M 222.5,632.5 C 222.082,633.222 221.416,633.722 220.5,634C 225.489,634.499 230.489,634.666 235.5,634.5C 230.36,635.488 225.026,635.821 219.5,635.5C 219.5,634.5 219.5,633.5 219.5,632.5C 220.5,632.5 221.5,632.5 222.5,632.5 Z"/></g>
<g><path style="opacity:1" fill="#6a6a6a" d="M 245.5,632.5 C 245.833,632.5 246.167,632.5 246.5,632.5C 245.737,633.268 244.737,633.768 243.5,634C 248.5,634.667 253.5,634.667 258.5,634C 257.584,633.722 256.918,633.222 256.5,632.5C 257.5,632.5 258.5,632.5 259.5,632.5C 259.5,633.5 259.5,634.5 259.5,635.5C 253.833,635.5 248.167,635.5 242.5,635.5C 242.5,634.5 242.5,633.5 242.5,632.5C 243.5,632.5 244.5,632.5 245.5,632.5 Z"/></g>
<g><path style="opacity:1" fill="#696969" d="M 339.5,632.5 C 339.082,633.222 338.416,633.722 337.5,634C 342.5,634.667 347.5,634.667 352.5,634C 351.584,633.722 350.918,633.222 350.5,632.5C 351.5,632.5 352.5,632.5 353.5,632.5C 353.5,633.5 353.5,634.5 353.5,635.5C 347.833,635.5 342.167,635.5 336.5,635.5C 336.5,634.5 336.5,633.5 336.5,632.5C 337.5,632.5 338.5,632.5 339.5,632.5 Z"/></g>
<g><path style="opacity:1" fill="#696969" d="M 362.5,632.5 C 362.389,633.117 362.056,633.617 361.5,634C 366.5,634.667 371.5,634.667 376.5,634C 375.584,633.722 374.918,633.222 374.5,632.5C 375.5,632.5 376.5,632.5 377.5,632.5C 377.5,633.5 377.5,634.5 377.5,635.5C 371.833,635.5 366.167,635.5 360.5,635.5C 360.285,633.821 360.952,632.821 362.5,632.5 Z"/></g>
<g><path style="opacity:1" fill="#676767" d="M 199.5,1151.5 C 246.168,1151.33 292.835,1151.5 339.5,1152C 340.833,1153.33 340.833,1154.67 339.5,1156C 292.833,1156.67 246.167,1156.67 199.5,1156C 198.272,1154.51 198.272,1153.01 199.5,1151.5 Z"/></g>
</svg>
