<?xml version="1.0" encoding="UTF-8"?>
<!DOCTYPE svg PUBLIC "-//W3C//DTD SVG 1.1//EN" "http://www.w3.org/Graphics/SVG/1.1/DTD/svg11.dtd">
<svg xmlns="http://www.w3.org/2000/svg" version="1.1" width="540px" height="1170px" style="shape-rendering:geometricPrecision; text-rendering:geometricPrecision; image-rendering:optimizeQuality; fill-rule:evenodd; clip-rule:evenodd" xmlns:xlink="http://www.w3.org/1999/xlink">
<g><path style="opacity:1" fill="#fefefe" d="M -0.5,-0.5 C 179.5,-0.5 359.5,-0.5 539.5,-0.5C 539.5,47.8333 539.5,96.1667 539.5,144.5C 359.5,144.5 179.5,144.5 -0.5,144.5C -0.5,96.1667 -0.5,47.8333 -0.5,-0.5 Z"/></g>
<g><path style="opacity:1" fill="#686868" d="M 109.5,63.5 C 108.79,65.7463 108.29,68.0796 108,70.5C 107.333,66.8333 107.333,63.1667 108,59.5C 108.21,61.0581 108.71,62.3915 109.5,63.5 Z"/></g>
<g><path style="opacity:1" fill="#9b9b9b" d="M 414.5,58.5 C 415.8,60.223 416.467,62.3897 416.5,65C 416.167,67.1667 415.833,69.3333 415.5,71.5C 414.508,67.2172 414.174,62.8839 414.5,58.5 Z"/></g>
<g><path style="opacity:1" fill="#848484" d="M 68.5,60.5 C 70.7949,59.0719 72.7949,59.5719 74.5,62C 72.6498,61.4052 70.6498,60.9052 68.5,60.5 Z"/></g>
<g><path style="opacity:1" fill="#6b6b6b" d="M 214.5,60.5 C 215.309,61.4687 216.309,62.3021 217.5,63C 215.862,65.1335 215.029,67.6335 215,70.5C 214.971,67.6335 214.138,65.1335 212.5,63C 213.756,62.5831 214.423,61.7498 214.5,60.5 Z"/></g>
<g><path style="opacity:1" fill="#6b6b6b" d="M 331.5,60.5 C 332.309,61.4687 333.309,62.3021 334.5,63C 332.862,65.1335 332.029,67.6335 332,70.5C 331.971,67.6335 331.138,65.1335 329.5,63C 330.756,62.5831 331.423,61.7498 331.5,60.5 Z"/></g>
<g><path style="opacity:1" fill="#8d8d8d" d="M 68.5,60.5 C 68.2196,63.3882 69.5529,64.8882 72.5,65C 75.3883,68.172 74.7216,70.3386 70.5,71.5C 67.9818,71.1595 66.8151,69.8262 67,67.5C 68.4443,69.1554 70.2776,69.822 72.5,69.5C 72.5,68.5 72.5,67.5 72.5,66.5C 69.4121,66.633 67.4121,65.2997 66.5,62.5C 66.7472,61.2867 67.4138,60.62 68.5,60.5 Z"/></g>
<g><path style="opacity:1" fill="#7c7c7c" d="M 120.5,59.5 C 121.404,60.209 121.737,61.209 121.5,62.5C 127.375,62.6364 128.875,65.303 126,70.5C 124.542,71.7468 123.042,71.7468 121.5,70.5C 120.511,66.8927 120.177,63.226 120.5,59.5 Z"/></g>
<g><path style="opacity:1" fill="#6f6f6f" d="M 93.5,62.5 C 97.554,62.2105 98.054,62.8771 95,64.5C 94.6667,66.5 94.3333,68.5 94,70.5C 93.5026,67.854 93.3359,65.1873 93.5,62.5 Z"/></g>
<g><path style="opacity:1" fill="#6f6f6f" d="M 184.5,62.5 C 188.554,62.2105 189.054,62.8771 186,64.5C 185.667,66.5 185.333,68.5 185,70.5C 184.503,67.854 184.336,65.1873 184.5,62.5 Z"/></g>
<g><path style="opacity:1" fill="#838383" d="M 189.5,62.5 C 195.674,61.1729 197.841,63.5062 196,69.5C 194.89,71.0368 193.39,71.7035 191.5,71.5C 191.719,72.675 191.386,73.675 190.5,74.5C 189.509,70.5546 189.176,66.5546 189.5,62.5 Z"/></g>
<g><path style="opacity:1" fill="#7c7c7c" d="M 239.5,59.5 C 240.808,63.0187 240.808,66.6853 239.5,70.5C 235.751,72.1105 233.751,70.7772 233.5,66.5C 234.136,63.2061 236.136,61.8728 239.5,62.5C 239.5,61.5 239.5,60.5 239.5,59.5 Z"/></g>
<g><path style="opacity:1" fill="#7c7c7c" d="M 248.5,59.5 C 249.808,63.0187 249.808,66.6853 248.5,70.5C 244.751,72.1105 242.751,70.7772 242.5,66.5C 243.136,63.2061 245.136,61.8728 248.5,62.5C 248.5,61.5 248.5,60.5 248.5,59.5 Z"/></g>
<g><path style="opacity:1" fill="#6f6f6f" d="M 252.5,62.5 C 256.554,62.2105 257.054,62.8771 254,64.5C 253.667,66.5 253.333,68.5 253,70.5C 252.503,67.854 252.336,65.1873 252.5,62.5 Z"/></g>
<g><path style="opacity:1" fill="#888888" d="M 266.5,62.5 C 268.429,62.2308 270.095,62.7308 271.5,64C 270.049,63.7374 268.716,63.9041 267.5,64.5C 268.32,66.1112 269.654,66.7778 271.5,66.5C 272.158,70.6772 270.492,72.1772 266.5,71C 265.549,70.2825 265.383,69.4491 266,68.5C 267.494,69.7472 268.994,69.7472 270.5,68.5C 269.264,67.6433 267.931,66.9766 266.5,66.5C 265.374,65.1916 265.374,63.8583 266.5,62.5 Z"/></g>
<g><path style="opacity:1" fill="#6f6f6f" d="M 308.5,62.5 C 312.554,62.2105 313.054,62.8771 310,64.5C 309.667,66.5 309.333,68.5 309,70.5C 308.503,67.854 308.336,65.1873 308.5,62.5 Z"/></g>
<g><path style="opacity:1" fill="#999999" d="M 335.5,62.5 C 336.765,63.5145 337.431,65.0145 337.5,67C 337.167,68.5 336.833,70 336.5,71.5C 335.516,68.5719 335.183,65.5719 335.5,62.5 Z"/></g>
<g><path style="opacity:1" fill="#8c8c8c" d="M 348.5,62.5 C 355.359,61.8733 357.359,64.8733 354.5,71.5C 353.04,61.0582 351.373,61.0582 349.5,71.5C 348.516,68.5719 348.183,65.5719 348.5,62.5 Z"/></g>
<g><path style="opacity:1" fill="#696969" d="M 109.5,63.5 C 110.542,62.2089 111.708,62.2089 113,63.5C 113.667,65.8333 113.667,68.1667 113,70.5C 112.667,68.5 112.333,66.5 112,64.5C 111.329,63.7476 110.496,63.4142 109.5,63.5 Z"/></g>
<g><path style="opacity:1" fill="#f7f7f7" d="M 122.5,63.5 C 123.496,63.4142 124.329,63.7476 125,64.5C 125.494,66.1341 125.66,67.8008 125.5,69.5C 124.167,69.5 122.833,69.5 121.5,69.5C 121.325,67.3792 121.659,65.3792 122.5,63.5 Z"/></g>
<g><path style="opacity:1" fill="#7e7e7e" d="M 132.5,68.5 C 132.247,66.1727 132.914,64.1727 134.5,62.5C 134.833,62.6667 135.167,62.8333 135.5,63C 134.771,65.0581 133.771,66.8914 132.5,68.5 Z"/></g>
<g><path style="opacity:1" fill="#878787" d="M 153.5,60.5 C 154.922,60.7496 155.922,61.583 156.5,63C 155.715,65.9084 155.381,68.7418 155.5,71.5C 154.914,71.2907 154.414,70.9574 154,70.5C 153.774,67.905 153.274,65.405 152.5,63C 153.252,62.3292 153.586,61.4959 153.5,60.5 Z"/></g>
<g><path style="opacity:1" fill="#7d7d7d" d="M 161.5,68.5 C 161.247,66.1727 161.914,64.1727 163.5,62.5C 163.833,62.6667 164.167,62.8333 164.5,63C 163.771,65.0581 162.771,66.8914 161.5,68.5 Z"/></g>
<g><path style="opacity:1" fill="#f2f2f2" d="M 191.5,63.5 C 195.35,63.7007 196.35,65.5341 194.5,69C 193.552,69.4828 192.552,69.6495 191.5,69.5C 191.5,67.5 191.5,65.5 191.5,63.5 Z"/></g>
<g><path style="opacity:1" fill="#7d7d7d" d="M 199.5,62.5 C 205.067,61.7532 206.9,64.0866 205,69.5C 203,72.1667 201,72.1667 199,69.5C 198.297,67.0709 198.463,64.7375 199.5,62.5 Z"/></g>
<g><path style="opacity:1" fill="#f1f1f1" d="M 200.5,63.5 C 204.35,63.7007 205.35,65.5341 203.5,69C 199.537,69.1177 198.537,67.2843 200.5,63.5 Z"/></g>
<g><path style="opacity:1" fill="#f7f7f7" d="M 236.5,63.5 C 237.496,63.4142 238.329,63.7476 239,64.5C 239.494,66.1341 239.66,67.8008 239.5,69.5C 238.167,69.5 236.833,69.5 235.5,69.5C 235.325,67.3792 235.659,65.3792 236.5,63.5 Z"/></g>
<g><path style="opacity:1" fill="#f7f7f7" d="M 245.5,63.5 C 246.496,63.4142 247.329,63.7476 248,64.5C 248.494,66.1341 248.66,67.8008 248.5,69.5C 247.167,69.5 245.833,69.5 244.5,69.5C 244.325,67.3792 244.659,65.3792 245.5,63.5 Z"/></g>
<g><path style="opacity:1" fill="#888888" d="M 298.5,60.5 C 299.756,60.9038 300.923,61.5705 302,62.5C 303.841,59.6769 305.341,59.8436 306.5,63C 305.212,65.4665 305.212,67.9665 306.5,70.5C 305.998,71.521 305.332,71.6877 304.5,71C 303.565,68.6194 303.232,66.1194 303.5,63.5C 302.5,63.5 301.5,63.5 300.5,63.5C 300.292,65.9201 300.626,68.2534 301.5,70.5C 300.726,71.7112 299.893,71.7112 299,70.5C 298.774,67.905 298.274,65.405 297.5,63C 298.252,62.3292 298.586,61.4959 298.5,60.5 Z"/></g>
<g><path style="opacity:1" fill="#7d7d7d" d="M 340.5,62.5 C 346.067,61.7532 347.9,64.0866 346,69.5C 344,72.1667 342,72.1667 340,69.5C 339.297,67.0709 339.463,64.7375 340.5,62.5 Z"/></g>
<g><path style="opacity:1" fill="#f1f1f1" d="M 341.5,63.5 C 345.35,63.7007 346.35,65.5341 344.5,69C 340.537,69.1177 339.537,67.2843 341.5,63.5 Z"/></g>
<g><path style="opacity:1" fill="#7d7d7d" d="M 365.5,62.5 C 371.067,61.7532 372.9,64.0866 371,69.5C 369,72.1667 367,72.1667 365,69.5C 364.297,67.0709 364.463,64.7375 365.5,62.5 Z"/></g>
<g><path style="opacity:1" fill="#f1f1f1" d="M 366.5,63.5 C 370.35,63.7007 371.35,65.5341 369.5,69C 365.537,69.1177 364.537,67.2843 366.5,63.5 Z"/></g>
<g><path style="opacity:1" fill="#696969" d="M 385.5,63.5 C 386.542,62.2089 387.708,62.2089 389,63.5C 389.667,65.8333 389.667,68.1667 389,70.5C 388.667,68.5 388.333,66.5 388,64.5C 387.329,63.7476 386.496,63.4142 385.5,63.5 Z"/></g>
<g><path style="opacity:1" fill="#878787" d="M 401.5,60.5 C 402.922,60.7496 403.922,61.583 404.5,63C 403.715,65.9084 403.381,68.7418 403.5,71.5C 402.914,71.2907 402.414,70.9574 402,70.5C 401.774,67.905 401.274,65.405 400.5,63C 401.252,62.3292 401.586,61.4959 401.5,60.5 Z"/></g>
<g><path style="opacity:1" fill="#9a9a9a" d="M 207.5,62.5 C 208.873,62.3433 210.207,62.51 211.5,63C 209.98,65.5396 208.98,68.373 208.5,71.5C 207.516,68.5719 207.183,65.5719 207.5,62.5 Z"/></g>
<g><path style="opacity:1" fill="#a2a2a2" d="M 385.5,63.5 C 384.942,65.8234 384.275,68.1568 383.5,70.5C 382.167,66.8333 382.167,63.1667 383.5,59.5C 384.172,60.9492 384.839,62.2825 385.5,63.5 Z"/></g>
<g><path style="opacity:1" fill="#949494" d="M 77.5,62.5 C 81.5,61.8333 83.1667,63.5 82.5,67.5C 80.712,67.2148 79.0453,67.5481 77.5,68.5C 79.0064,69.7472 80.5064,69.7472 82,68.5C 82.6172,69.4491 82.4506,70.2825 81.5,71C 77.9049,72.0727 75.9049,70.7394 75.5,67C 75.5186,65.167 76.1852,63.667 77.5,62.5 Z"/></g>
<g><path style="opacity:1" fill="#909090" d="M 132.5,68.5 C 133.111,72.0289 131.777,73.8622 128.5,74C 129.804,73.196 130.471,72.0293 130.5,70.5C 129.988,68.1162 129.321,65.7828 128.5,63.5C 128.833,63.1667 129.167,62.8333 129.5,62.5C 130.518,64.5939 131.518,66.5939 132.5,68.5 Z"/></g>
<g><path style="opacity:1" fill="#949494" d="M 258.5,62.5 C 262.5,61.8333 264.167,63.5 263.5,67.5C 261.712,67.2148 260.045,67.5481 258.5,68.5C 260.006,69.7472 261.506,69.7472 263,68.5C 263.617,69.4491 263.451,70.2825 262.5,71C 258.905,72.0727 256.905,70.7394 256.5,67C 256.519,65.167 257.185,63.667 258.5,62.5 Z"/></g>
<g><path style="opacity:1" fill="#8f8f8f" d="M 323.5,62.5 C 325.665,62.1159 327.332,62.7826 328.5,64.5C 328.333,64.8333 328.167,65.1667 328,65.5C 327.163,63.9926 325.996,63.4926 324.5,64C 323.594,65.6995 323.261,67.5328 323.5,69.5C 325.446,69.1928 327.113,69.1928 328.5,69.5C 324.682,72.6137 322.348,71.6137 321.5,66.5C 321.752,64.9271 322.418,63.5938 323.5,62.5 Z"/></g>
<g><path style="opacity:1" fill="#868686" d="M 373.5,62.5 C 374.873,62.3433 376.207,62.51 377.5,63C 375.98,65.5396 374.98,68.373 374.5,71.5C 373.516,68.5719 373.183,65.5719 373.5,62.5 Z"/></g>
<g><path style="opacity:1" fill="#939393" d="M 407.5,62.5 C 411.5,61.8333 413.167,63.5 412.5,67.5C 410.712,67.2148 409.045,67.5481 407.5,68.5C 409.006,69.7472 410.506,69.7472 412,68.5C 412.617,69.4491 412.451,70.2825 411.5,71C 407.707,72.052 405.707,70.552 405.5,66.5C 405.752,64.9271 406.418,63.5938 407.5,62.5 Z"/></g>
<g><path style="opacity:1" fill="#909090" d="M 393.5,62.5 C 399.643,63.0262 400.976,65.8595 397.5,71C 394.783,72.033 392.949,71.1997 392,68.5C 391.252,66.1599 391.752,64.1599 393.5,62.5 Z"/></g>
<g><path style="opacity:1" fill="#f9f9f9" d="M 394.5,63.5 C 395.496,63.4142 396.329,63.7476 397,64.5C 397.494,66.1341 397.66,67.8008 397.5,69.5C 396.167,69.5 394.833,69.5 393.5,69.5C 393.325,67.3792 393.659,65.3792 394.5,63.5 Z"/></g>
<g><path style="opacity:1" fill="#919191" d="M 89.5,63.5 C 90.7479,64.3339 91.4146,65.6672 91.5,67.5C 91.1667,68.8333 90.8333,70.1667 90.5,71.5C 88.9793,71.1203 87.3126,70.9536 85.5,71C 84.2528,69.5064 84.2528,68.0064 85.5,66.5C 86.5063,66.9377 86.5063,67.6043 85.5,68.5C 86.6888,69.4287 88.0222,69.762 89.5,69.5C 89.5,67.5 89.5,65.5 89.5,63.5 Z"/></g>
<g><path style="opacity:1" fill="#8b8b8b" d="M 99.5,62.5 C 103.893,62.4568 104.226,62.9568 100.5,64C 99.1667,65.6667 99.1667,67.3333 100.5,69C 102.207,69.1953 103.874,69.1953 105.5,69C 103.484,72.015 101.317,72.1816 99,69.5C 98.2967,67.0709 98.4634,64.7375 99.5,62.5 Z"/></g>
<g><path style="opacity:1" fill="#8b8b8b" d="M 141.5,62.5 C 145.893,62.4568 146.226,62.9568 142.5,64C 141.167,65.6667 141.167,67.3333 142.5,69C 144.207,69.1953 145.874,69.1953 147.5,69C 145.484,72.015 143.317,72.1816 141,69.5C 140.297,67.0709 140.463,64.7375 141.5,62.5 Z"/></g>
<g><path style="opacity:1" fill="#919191" d="M 176.5,63.5 C 177.748,64.3339 178.415,65.6672 178.5,67.5C 178.167,68.8333 177.833,70.1667 177.5,71.5C 175.979,71.1203 174.313,70.9536 172.5,71C 171.253,69.5064 171.253,68.0064 172.5,66.5C 173.506,66.9377 173.506,67.6043 172.5,68.5C 173.689,69.4287 175.022,69.762 176.5,69.5C 176.5,67.5 176.5,65.5 176.5,63.5 Z"/></g>
<g><path style="opacity:1" fill="#919191" d="M 230.5,63.5 C 231.748,64.3339 232.415,65.6672 232.5,67.5C 232.167,68.8333 231.833,70.1667 231.5,71.5C 229.979,71.1203 228.313,70.9536 226.5,71C 225.253,69.5064 225.253,68.0064 226.5,66.5C 227.506,66.9377 227.506,67.6043 226.5,68.5C 227.689,69.4287 229.022,69.762 230.5,69.5C 230.5,67.5 230.5,65.5 230.5,63.5 Z"/></g>
<g><path style="opacity:1" fill="#8e8e8e" d="M 274.5,63.5 C 275.659,65.6308 277.492,66.9641 280,67.5C 279.107,72.0109 276.941,72.5109 273.5,69C 275.225,69.4087 276.892,69.2421 278.5,68.5C 275.658,67.9955 274.325,66.3289 274.5,63.5 Z"/></g>
<g><path style="opacity:1" fill="#909090" d="M 294.5,63.5 C 296.026,64.4919 296.693,65.9919 296.5,68C 296.167,69.1667 295.833,70.3333 295.5,71.5C 293.979,71.1203 292.313,70.9536 290.5,71C 289.253,69.5064 289.253,68.0064 290.5,66.5C 291.506,66.9377 291.506,67.6043 290.5,68.5C 291.689,69.4287 293.022,69.762 294.5,69.5C 294.5,67.5 294.5,65.5 294.5,63.5 Z"/></g>
<g><path style="opacity:1" fill="#919191" d="M 318.5,63.5 C 319.748,64.3339 320.415,65.6672 320.5,67.5C 320.167,68.8333 319.833,70.1667 319.5,71.5C 317.979,71.1203 316.313,70.9536 314.5,71C 313.253,69.5064 313.253,68.0064 314.5,66.5C 315.506,66.9377 315.506,67.6043 314.5,68.5C 315.689,69.4287 317.022,69.762 318.5,69.5C 318.5,67.5 318.5,65.5 318.5,63.5 Z"/></g>
<g><path style="opacity:1" fill="#969696" d="M 161.5,68.5 C 161.978,71.2776 160.978,73.2776 158.5,74.5C 158.167,74.1667 157.833,73.8333 157.5,73.5C 159.577,70.3324 159.577,66.999 157.5,63.5C 157.833,63.1667 158.167,62.8333 158.5,62.5C 159.518,64.5939 160.518,66.5939 161.5,68.5 Z"/></g>
<g><path style="opacity:1" fill="#0f0f0f" d="M 30.5,97.5 C 32.0281,97.5173 32.5281,98.184 32,99.5C 29.8333,101.667 27.6667,103.833 25.5,106C 30.8642,106.171 36.1975,106.671 41.5,107.5C 36.5329,108.329 31.5329,108.829 26.5,109C 28.3333,110.833 30.1667,112.667 32,114.5C 32.5628,115.725 32.2295,116.725 31,117.5C 27.6507,114.318 24.484,110.985 21.5,107.5C 24.5222,104.147 27.5222,100.813 30.5,97.5 Z"/></g>
<g><path style="opacity:1" fill="#878787" d="M 81.5,99.5 C 82.5,99.5 83.5,99.5 84.5,99.5C 83.7542,103.31 82.7542,103.31 81.5,99.5 Z"/></g>
<g><path style="opacity:1" fill="#676767" d="M 196.5,98.5 C 197.82,101.428 198.486,104.761 198.5,108.5C 198.167,111.833 197.833,115.167 197.5,118.5C 196.503,111.866 196.17,105.2 196.5,98.5 Z"/></g>
<g><path style="opacity:1" fill="#6f757e" d="M 67.5,90.5 C 68.4767,93.2869 68.81,96.2869 68.5,99.5C 72.226,99.1774 75.8927,99.5108 79.5,100.5C 76.5719,101.484 73.5719,101.817 70.5,101.5C 70.5,103.833 70.5,106.167 70.5,108.5C 79.8333,109.167 79.8333,109.833 70.5,110.5C 69.8333,115.833 69.1667,121.167 68.5,126.5C 67.209,126.737 66.209,126.404 65.5,125.5C 67.4784,114.215 68.1451,102.548 67.5,90.5 Z"/></g>
<g><path style="opacity:1" fill="#1c4a84" d="M 67.5,90.5 C 68.1451,102.548 67.4784,114.215 65.5,125.5C 64.8549,113.452 65.5216,101.785 67.5,90.5 Z"/></g>
<g><path style="opacity:1" fill="#797979" d="M 174.5,101.5 C 176.048,101.821 176.715,102.821 176.5,104.5C 177.675,104.281 178.675,104.614 179.5,105.5C 176.833,109.5 176.833,113.5 179.5,117.5C 177.994,118.747 176.494,118.747 175,117.5C 175.003,113.258 174.17,109.258 172.5,105.5C 173.853,104.476 174.52,103.143 174.5,101.5 Z"/></g>
<g><path style="opacity:1" fill="#6d6d6d" d="M 82.5,104.5 C 83.8048,106.397 84.4714,108.731 84.5,111.5C 84.1667,113.833 83.8333,116.167 83.5,118.5C 82.5067,113.88 82.1734,109.214 82.5,104.5 Z"/></g>
<g><path style="opacity:1" fill="#757575" d="M 88.5,104.5 C 90.6259,105.705 92.7926,105.705 95,104.5C 96.7106,104.439 98.044,105.106 99,106.5C 99.4988,110.486 99.6655,114.486 99.5,118.5C 98.5,118.5 97.5,118.5 96.5,118.5C 96.5,114.5 96.5,110.5 96.5,106.5C 94.7376,106.357 93.0709,106.691 91.5,107.5C 90.8333,111.167 90.1667,114.833 89.5,118.5C 88.5067,113.88 88.1734,109.214 88.5,104.5 Z"/></g>
<g><path style="opacity:1" fill="#747474" d="M 144.5,98.5 C 146.062,100.372 147.062,102.705 147.5,105.5C 150.291,103.96 152.791,104.294 155,106.5C 155.499,110.486 155.666,114.486 155.5,118.5C 154.5,118.5 153.5,118.5 152.5,118.5C 152.5,114.5 152.5,110.5 152.5,106.5C 150.738,106.357 149.071,106.691 147.5,107.5C 146.833,111.167 146.167,114.833 145.5,118.5C 144.503,111.866 144.17,105.2 144.5,98.5 Z"/></g>
<g><path style="opacity:1" fill="#797979" d="M 111.5,98.5 C 112.5,98.5 113.5,98.5 114.5,98.5C 114.5,105.167 114.5,111.833 114.5,118.5C 111.644,118.072 108.644,117.905 105.5,118C 104.333,117.5 103.5,116.667 103,115.5C 102.333,112.833 102.333,110.167 103,107.5C 105.084,104.549 107.751,103.883 111,105.5C 111.497,103.19 111.663,100.857 111.5,98.5 Z"/></g>
<g><path style="opacity:1" fill="#6f6f6f" d="M 161.5,104.5 C 169.322,104.166 172.156,107.833 170,115.5C 166.333,119.5 162.667,119.5 159,115.5C 157.812,111.259 158.645,107.592 161.5,104.5 Z"/></g>
<g><path style="opacity:1" fill="#767676" d="M 185.5,104.5 C 191.167,104.167 193.833,106.833 193.5,112.5C 190.5,112.5 187.5,112.5 184.5,112.5C 184.33,113.822 184.663,114.989 185.5,116C 188.2,116.253 190.867,116.253 193.5,116C 185.033,120.883 181.2,118.383 182,108.5C 182.69,106.65 183.856,105.316 185.5,104.5 Z"/></g>
<g><path style="opacity:1" fill="#f9f9f9" d="M 106.5,106.5 C 108.144,106.286 109.644,106.62 111,107.5C 111.777,110.429 111.61,113.263 110.5,116C 105.008,116.486 103.175,113.986 105,108.5C 105.717,107.956 106.217,107.289 106.5,106.5 Z"/></g>
<g><path style="opacity:1" fill="#717171" d="M 126.5,104.5 C 132.827,103.494 135.494,106.16 134.5,112.5C 134.167,114.5 133.833,116.5 133.5,118.5C 130.933,118.222 128.267,118.056 125.5,118C 122.637,112.307 124.637,109.474 131.5,109.5C 131.5,108.5 131.5,107.5 131.5,106.5C 129.088,106.331 126.921,106.997 125,108.5C 124.5,108.167 124,107.833 123.5,107.5C 124.34,106.265 125.34,105.265 126.5,104.5 Z"/></g>
<g><path style="opacity:1" fill="#f9f9f9" d="M 162.5,106.5 C 167.989,106.504 169.822,109.171 168,114.5C 165.667,117.167 163.333,117.167 161,114.5C 160.109,111.502 160.609,108.836 162.5,106.5 Z"/></g>
<g><path style="opacity:1" fill="#ebebeb" d="M 185.5,106.5 C 188.288,106.077 190.288,107.077 191.5,109.5C 189.257,110.474 186.924,110.808 184.5,110.5C 184.433,109.041 184.766,107.708 185.5,106.5 Z"/></g>
<g><path style="opacity:1" fill="#ebebeb" d="M 127.5,111.5 C 129.167,111.5 130.833,111.5 132.5,111.5C 132.825,114.524 131.492,116.191 128.5,116.5C 124.872,115.564 124.539,113.898 127.5,111.5 Z"/></g>
<g><path style="opacity:1" fill="#ebebeb" d="M -0.5,144.5 C 179.5,144.5 359.5,144.5 539.5,144.5C 539.5,145.167 539.5,145.833 539.5,146.5C 359.5,146.5 179.5,146.5 -0.5,146.5C -0.5,145.833 -0.5,145.167 -0.5,144.5 Z"/></g>
<g><path style="opacity:1" fill="#fefefe" d="M -0.5,146.5 C 179.5,146.5 359.5,146.5 539.5,146.5C 539.5,465.167 539.5,783.833 539.5,1102.5C 359.5,1102.5 179.5,1102.5 -0.5,1102.5C -0.5,783.833 -0.5,465.167 -0.5,146.5 Z"/></g>
<g><path style="opacity:1" fill="#535353" d="M 52.5,193.5 C 46.5118,191.327 41.5118,192.661 37.5,197.5C 37.8588,195.629 38.8588,194.129 40.5,193C 43.0076,192.346 45.1742,191.179 47,189.5C 48.8557,190.9 50.689,192.233 52.5,193.5 Z"/></g>
<g><path style="opacity:1" fill="#616161" d="M 52.5,193.5 C 54.6859,193.511 55.5192,194.511 55,196.5C 53.955,195.627 53.1217,194.627 52.5,193.5 Z"/></g>
<g><path style="opacity:1" fill="#878787" d="M 125.5,193.5 C 125.179,198.695 125.513,203.695 126.5,208.5C 126.44,209.043 126.107,209.376 125.5,209.5C 124.185,204.014 124.185,198.68 125.5,193.5 Z"/></g>
<g><path style="opacity:1" fill="#686868" d="M 183.5,193.5 C 184.812,195.743 185.478,198.41 185.5,201.5C 185.167,204.167 184.833,206.833 184.5,209.5C 183.505,204.208 183.172,198.875 183.5,193.5 Z"/></g>
<g><path style="opacity:1" fill="#868686" d="M 245.5,193.5 C 245.179,198.695 245.513,203.695 246.5,208.5C 246.44,209.043 246.107,209.376 245.5,209.5C 244.185,204.014 244.185,198.68 245.5,193.5 Z"/></g>
<g><path style="opacity:1" fill="#6e6e6e" d="M 51.5,205.5 C 52.2833,198.282 49.2833,195.949 42.5,198.5C 44.645,195.399 47.3116,194.899 50.5,197C 53.7543,199.751 54.0877,202.584 51.5,205.5 Z"/></g>
<g><path style="opacity:1" fill="#fafafa" d="M 51.5,205.5 C 49.412,206.939 47.0786,207.606 44.5,207.5C 43.8333,206.167 42.8333,205.167 41.5,204.5C 41.5172,202.435 41.8505,200.435 42.5,198.5C 49.2833,195.949 52.2833,198.282 51.5,205.5 Z"/></g>
<g><path style="opacity:1" fill="#8b8b8b" d="M 108.5,198.5 C 107.167,201.833 107.167,205.167 108.5,208.5C 108.44,209.043 108.107,209.376 107.5,209.5C 106.167,205.5 106.167,201.5 107.5,197.5C 108.107,197.624 108.44,197.957 108.5,198.5 Z"/></g>
<g><path style="opacity:1" fill="#3b3b3b" d="M 125.5,193.5 C 126.163,195.042 126.83,196.709 127.5,198.5C 129.644,197.047 131.477,197.38 133,199.5C 133.824,202.882 133.657,206.216 132.5,209.5C 131.513,206.232 131.18,202.898 131.5,199.5C 129.856,199.286 128.356,199.62 127,200.5C 126.503,203.146 126.336,205.813 126.5,208.5C 125.513,203.695 125.179,198.695 125.5,193.5 Z"/></g>
<g><path style="opacity:1" fill="#424242" d="M 141.5,193.5 C 143.117,194.589 143.95,196.256 144,198.5C 146.267,197.065 148.267,197.398 150,199.5C 150.821,202.554 150.655,205.554 149.5,208.5C 148.682,205.893 148.182,203.226 148,200.5C 146.667,199.167 145.333,199.167 144,200.5C 143.821,203.553 143.321,206.553 142.5,209.5C 141.505,204.208 141.172,198.875 141.5,193.5 Z"/></g>
<g><path style="opacity:1" fill="#8b8b8b" d="M 205.5,198.5 C 204.167,201.833 204.167,205.167 205.5,208.5C 205.44,209.043 205.107,209.376 204.5,209.5C 203.167,205.5 203.167,201.5 204.5,197.5C 205.107,197.624 205.44,197.957 205.5,198.5 Z"/></g>
<g><path style="opacity:1" fill="#3c3c3c" d="M 205.5,208.5 C 204.167,205.167 204.167,201.833 205.5,198.5C 207.991,196.832 210.158,197.166 212,199.5C 212.824,202.882 212.657,206.216 211.5,209.5C 210.513,206.232 210.18,202.898 210.5,199.5C 208.856,199.286 207.356,199.62 206,200.5C 205.503,203.146 205.336,205.813 205.5,208.5 Z"/></g>
<g><path style="opacity:1" fill="#8b8b8b" d="M 239.5,198.5 C 238.167,201.833 238.167,205.167 239.5,208.5C 239.44,209.043 239.107,209.376 238.5,209.5C 237.167,205.5 237.167,201.5 238.5,197.5C 239.107,197.624 239.44,197.957 239.5,198.5 Z"/></g>
<g><path style="opacity:1" fill="#373737" d="M 108.5,208.5 C 107.167,205.167 107.167,201.833 108.5,198.5C 113.392,197.66 113.559,198.326 109,200.5C 108.503,203.146 108.336,205.813 108.5,208.5 Z"/></g>
<g><path style="opacity:1" fill="#3e3e3e" d="M 165.5,195.5 C 167.078,196.066 168.412,197.066 169.5,198.5C 166.881,201.748 166.881,204.915 169.5,208C 168.207,208.49 166.873,208.657 165.5,208.5C 165.956,204.889 165.289,201.556 163.5,198.5C 164.612,197.735 165.279,196.735 165.5,195.5 Z"/></g>
<g><path style="opacity:1" fill="#373737" d="M 239.5,208.5 C 238.167,205.167 238.167,201.833 239.5,198.5C 244.392,197.66 244.559,198.326 240,200.5C 239.503,203.146 239.336,205.813 239.5,208.5 Z"/></g>
<g><path style="opacity:1" fill="#474747" d="M 86.5,197.5 C 91.1667,197.5 93.5,199.833 93.5,204.5C 91.076,204.192 88.7427,204.526 86.5,205.5C 87.9664,207.657 89.7997,207.99 92,206.5C 92.6172,207.449 92.4506,208.282 91.5,209C 86.8341,210.01 84.5008,208.177 84.5,203.5C 84.3631,201.159 85.0298,199.159 86.5,197.5 Z"/></g>
<g><path style="opacity:1" fill="#393939" d="M 97.5,197.5 C 99.7224,197.178 101.556,197.845 103,199.5C 103.498,202.482 103.665,205.482 103.5,208.5C 97.5867,210.737 95.2534,208.904 96.5,203C 98.1341,202.506 99.8008,202.34 101.5,202.5C 101.5,201.5 101.5,200.5 101.5,199.5C 99.7376,199.357 98.0709,199.691 96.5,200.5C 96.1667,200.333 95.8333,200.167 95.5,200C 96.3805,199.292 97.0472,198.458 97.5,197.5 Z"/></g>
<g><path style="opacity:1" fill="#383838" d="M 116.5,197.5 C 119.278,197.022 121.278,198.022 122.5,200.5C 120.522,199.85 118.355,199.85 116,200.5C 114.224,206.906 116.057,208.572 121.5,205.5C 122.594,206.868 122.26,208.035 120.5,209C 114.687,209.171 112.52,206.338 114,200.5C 115.045,199.627 115.878,198.627 116.5,197.5 Z"/></g>
<g><path style="opacity:1" fill="#343434" d="M 174.5,197.5 C 178.833,197.167 180.833,199.167 180.5,203.5C 178.167,203.5 175.833,203.5 173.5,203.5C 173.33,204.822 173.663,205.989 174.5,207C 176.557,207.305 178.557,207.305 180.5,207C 177.512,210.384 174.679,210.217 172,206.5C 170.927,202.9 171.76,199.9 174.5,197.5 Z"/></g>
<g><path style="opacity:1" fill="#f0f0f0" d="M 174.5,199.5 C 175.833,199.5 177.167,199.5 178.5,199.5C 178.5,200.5 178.5,201.5 178.5,202.5C 176.712,202.785 175.045,202.452 173.5,201.5C 173.863,200.817 174.196,200.15 174.5,199.5 Z"/></g>
<g><path style="opacity:1" fill="#474747" d="M 217.5,197.5 C 222.167,197.5 224.5,199.833 224.5,204.5C 222.076,204.192 219.743,204.526 217.5,205.5C 218.966,207.657 220.8,207.99 223,206.5C 223.617,207.449 223.451,208.282 222.5,209C 217.834,210.01 215.501,208.177 215.5,203.5C 215.363,201.159 216.03,199.159 217.5,197.5 Z"/></g>
<g><path style="opacity:1" fill="#ebebeb" d="M 217.5,199.5 C 219.665,199.116 221.332,199.783 222.5,201.5C 220.579,202.641 218.579,202.808 216.5,202C 217.252,201.329 217.586,200.496 217.5,199.5 Z"/></g>
<g><path style="opacity:1" fill="#393939" d="M 228.5,197.5 C 230.722,197.178 232.556,197.845 234,199.5C 234.498,202.482 234.665,205.482 234.5,208.5C 228.587,210.737 226.253,208.904 227.5,203C 229.134,202.506 230.801,202.34 232.5,202.5C 232.5,201.5 232.5,200.5 232.5,199.5C 230.738,199.357 229.071,199.691 227.5,200.5C 227.167,200.333 226.833,200.167 226.5,200C 227.381,199.292 228.047,198.458 228.5,197.5 Z"/></g>
<g><path style="opacity:1" fill="#393939" d="M 42.5,198.5 C 41.8505,200.435 41.5172,202.435 41.5,204.5C 40.8614,203.903 40.528,203.07 40.5,202C 40.3866,200.301 41.0532,199.134 42.5,198.5 Z"/></g>
<g><path style="opacity:1" fill="#404040" d="M 54.5,209.5 C 56.2488,205.86 57.0822,202.194 57,198.5C 57.3176,200.061 58.1509,201.228 59.5,202C 58.0483,204.666 56.3817,207.166 54.5,209.5 Z"/></g>
<g><path style="opacity:1" fill="#f3f3f3" d="M 87.5,199.5 C 89.3464,199.222 90.6798,199.889 91.5,201.5C 89.8333,202.833 88.1667,202.833 86.5,201.5C 86.8627,200.817 87.1961,200.15 87.5,199.5 Z"/></g>
<g><path style="opacity:1" fill="#efefef" d="M 98.5,203.5 C 99.5,203.5 100.5,203.5 101.5,203.5C 101.5,204.833 101.5,206.167 101.5,207.5C 100.167,207.5 98.8333,207.5 97.5,207.5C 97.4326,206.041 97.7659,204.708 98.5,203.5 Z"/></g>
<g><path style="opacity:1" fill="#efefef" d="M 229.5,203.5 C 230.5,203.5 231.5,203.5 232.5,203.5C 232.5,204.833 232.5,206.167 232.5,207.5C 231.167,207.5 229.833,207.5 228.5,207.5C 228.433,206.041 228.766,204.708 229.5,203.5 Z"/></g>
<g><path style="opacity:1" fill="#666666" d="M 37.5,197.5 C 38.0725,199.979 38.0725,202.313 37.5,204.5C 37.8481,206.697 38.8481,208.53 40.5,210C 43.5065,211.278 46.5065,211.778 49.5,211.5C 51.1772,210.813 52.8439,210.146 54.5,209.5C 50.015,215.152 45.015,215.652 39.5,211C 37.3119,208.29 35.6452,205.29 34.5,202C 35.3994,200.348 36.3994,198.848 37.5,197.5 Z"/></g>
<g><path style="opacity:1" fill="#525252" d="M 41.5,204.5 C 42.8333,205.167 43.8333,206.167 44.5,207.5C 42.5,207.5 41.5,206.5 41.5,204.5 Z"/></g>
<g><path style="opacity:1" fill="#3e3e3e" d="M 255.5,197.5 C 256.376,197.369 257.043,197.702 257.5,198.5C 258.432,200.795 259.265,203.129 260,205.5C 260.689,202.592 261.855,199.925 263.5,197.5C 263.833,198 264.167,198.5 264.5,199C 262.803,203.09 261.303,207.257 260,211.5C 258.759,213.421 257.259,213.754 255.5,212.5C 256.325,211.614 257.325,211.281 258.5,211.5C 258.693,206.562 257.693,201.895 255.5,197.5 Z"/></g>
<g><path style="opacity:1" fill="#595959" d="M 51.5,205.5 C 51.4226,206.75 50.756,207.583 49.5,208C 47.6131,208.78 45.9464,208.613 44.5,207.5C 47.0786,207.606 49.412,206.939 51.5,205.5 Z"/></g>
<g><path style="opacity:1" fill="#3c3c3c" d="M 74.5,193.5 C 77.7123,193.106 80.0456,194.272 81.5,197C 81.3333,197.5 81.1667,198 81,198.5C 79.6949,195.694 77.5282,194.86 74.5,196C 73.9781,196.561 73.6448,197.228 73.5,198C 76.2811,199.828 79.1144,201.662 82,203.5C 81.8534,208.296 79.3534,210.13 74.5,209C 72.3843,207.829 71.7176,206.329 72.5,204.5C 74.8591,207.976 77.5258,208.309 80.5,205.5C 77.9175,203.235 75.0841,201.235 72,199.5C 71.3333,198.5 71.3333,197.5 72,196.5C 73.045,195.627 73.8783,194.627 74.5,193.5 Z"/></g>
<g><path style="opacity:1" fill="#383838" d="M 155.5,197.5 C 163.103,198.956 164.436,202.789 159.5,209C 153.687,209.171 151.52,206.338 153,200.5C 154.045,199.627 154.878,198.627 155.5,197.5 Z"/></g>
<g><path style="opacity:1" fill="#f3f3f3" d="M 155.5,199.5 C 157.144,199.286 158.644,199.62 160,200.5C 160.758,202.769 160.591,204.936 159.5,207C 157.888,207.72 156.388,207.554 155,206.5C 154.297,204.071 154.463,201.738 155.5,199.5 Z"/></g>
<g><path style="opacity:1" fill="#464646" d="M 189.5,197.5 C 191.977,197.051 193.977,197.717 195.5,199.5C 193.576,199.567 191.576,199.9 189.5,200.5C 191.427,202.102 193.594,203.435 196,204.5C 196.165,208.977 193.998,210.477 189.5,209C 188.643,208.311 187.977,207.478 187.5,206.5C 189.608,207.225 191.942,207.225 194.5,206.5C 193.232,204.953 191.565,203.953 189.5,203.5C 188.306,201.484 188.306,199.484 189.5,197.5 Z"/></g>
<g><path style="opacity:1" fill="#313131" d="M 245.5,193.5 C 246.163,195.042 246.83,196.709 247.5,198.5C 251.665,197.307 253.999,198.974 254.5,203.5C 253.823,208.528 251.156,210.194 246.5,208.5C 245.513,203.695 245.179,198.695 245.5,193.5 Z"/></g>
<g><path style="opacity:1" fill="#ebebeb" d="M 247.5,199.5 C 249.144,199.286 250.644,199.62 252,200.5C 252.758,202.769 252.591,204.936 251.5,207C 249.888,207.72 248.388,207.554 247,206.5C 246.297,204.071 246.463,201.738 247.5,199.5 Z"/></g>
<g><path style="opacity:1" fill="#8d8d8f" d="M 317.5,309.5 C 316.907,312.8 316.24,316.134 315.5,319.5C 314.167,314.167 314.167,308.833 315.5,303.5C 316.169,305.631 316.835,307.631 317.5,309.5 Z"/></g>
<g><path style="opacity:1" fill="#8b8c8e" d="M 251.5,305.5 C 252.931,306.446 254.264,307.612 255.5,309C 254.296,310.353 253.629,312.019 253.5,314C 253.629,315.981 254.296,317.647 255.5,319C 254.216,319.684 253.049,319.517 252,318.5C 252.021,314.991 251.188,311.825 249.5,309C 250.973,308.29 251.64,307.124 251.5,305.5 Z"/></g>
<g><path style="opacity:1" fill="#919294" d="M 242.5,309.5 C 244.035,308.212 245.701,308.212 247.5,309.5C 248.757,312.823 248.757,316.156 247.5,319.5C 246.679,316.553 246.179,313.553 246,310.5C 244.989,309.663 243.822,309.33 242.5,309.5 Z"/></g>
<g><path style="opacity:1" fill="#919294" d="M 296.5,308.5 C 298.288,308.215 299.955,308.548 301.5,309.5C 300.675,310.386 299.675,310.719 298.5,310.5C 298.817,313.572 298.484,316.572 297.5,319.5C 296.511,315.893 296.177,312.226 296.5,308.5 Z"/></g>
<g><path style="opacity:1" fill="#98999b" d="M 230.5,308.5 C 235.339,307.677 237.673,309.677 237.5,314.5C 235.167,314.5 232.833,314.5 230.5,314.5C 230.5,315.5 230.5,316.5 230.5,317.5C 232.78,317.254 234.78,317.254 236.5,317.5C 234.085,320.128 231.585,320.128 229,317.5C 228.068,314.177 228.568,311.177 230.5,308.5 Z"/></g>
<g><path style="opacity:1" fill="#8f8f92" d="M 338.5,308.5 C 341.346,308.03 343.679,308.863 345.5,311C 343.893,311.115 342.393,310.615 341,309.5C 339.72,309.613 338.887,310.28 338.5,311.5C 340.289,312.877 342.289,313.877 344.5,314.5C 345.214,318.923 343.214,320.423 338.5,319C 337.833,318.333 337.167,317.667 336.5,317C 338.107,316.885 339.607,317.385 341,318.5C 342.28,318.387 343.113,317.72 343.5,316.5C 341.434,315.094 339.268,313.76 337,312.5C 336.7,310.934 337.2,309.601 338.5,308.5 Z"/></g>
<g><path style="opacity:1" fill="#355a8f" d="M 146.5,308.5 C 168.024,308.179 177.191,318.512 174,339.5C 167.503,352.116 157.336,356.616 143.5,353C 142.034,352.365 140.7,351.531 139.5,350.5C 134.681,354.818 130.015,359.318 125.5,364C 121.188,364.017 119.355,361.85 120,357.5C 124.547,353.289 128.714,348.789 132.5,344C 125.35,327.255 130.017,315.422 146.5,308.5 Z"/></g>
<g><path style="opacity:1" fill="#909194" d="M 219.5,308.5 C 222.596,307.907 224.929,308.907 226.5,311.5C 226.167,311.833 225.833,312.167 225.5,312.5C 223.74,309.074 221.574,308.741 219,311.5C 218.083,317.628 220.25,318.962 225.5,315.5C 226.594,316.868 226.26,318.035 224.5,319C 217.999,319.812 215.832,316.979 218,310.5C 218.717,309.956 219.217,309.289 219.5,308.5 Z"/></g>
<g><path style="opacity:1" fill="#909194" d="M 242.5,309.5 C 241.907,312.8 241.24,316.134 240.5,319.5C 239.167,315.833 239.167,312.167 240.5,308.5C 241.183,308.863 241.85,309.196 242.5,309.5 Z"/></g>
<g><path style="opacity:1" fill="#969799" d="M 275.5,308.5 C 280.495,307.582 282.828,309.582 282.5,314.5C 280.076,314.192 277.743,314.526 275.5,315.5C 277.099,317.729 279.099,318.062 281.5,316.5C 282.711,317.274 282.711,318.107 281.5,319C 276.248,320.856 273.581,319.022 273.5,313.5C 273.437,311.486 274.103,309.819 275.5,308.5 Z"/></g>
<g><path style="opacity:1" fill="#f6f6f6" d="M 277.5,309.5 C 278.995,309.415 279.995,310.081 280.5,311.5C 278.926,312.631 277.259,312.798 275.5,312C 276.381,311.292 277.047,310.458 277.5,309.5 Z"/></g>
<g><path style="opacity:1" fill="#909193" d="M 305.5,308.5 C 308.596,307.907 310.929,308.907 312.5,311.5C 312.167,311.833 311.833,312.167 311.5,312.5C 309.74,309.074 307.574,308.741 305,311.5C 304.083,317.628 306.25,318.962 311.5,315.5C 312.594,316.868 312.26,318.035 310.5,319C 303.999,319.812 301.832,316.979 304,310.5C 304.717,309.956 305.217,309.289 305.5,308.5 Z"/></g>
<g><path style="opacity:1" fill="#919295" d="M 317.5,309.5 C 319.035,308.212 320.701,308.212 322.5,309.5C 323.757,312.823 323.757,316.156 322.5,319.5C 321.679,316.553 321.179,313.553 321,310.5C 319.989,309.663 318.822,309.33 317.5,309.5 Z"/></g>
<g><path style="opacity:1" fill="#9a9b9d" d="M 327.5,308.5 C 332.339,307.677 334.673,309.677 334.5,314.5C 332.076,314.192 329.743,314.526 327.5,315.5C 329.099,317.729 331.099,318.062 333.5,316.5C 334.711,317.274 334.711,318.107 333.5,319C 328.248,320.856 325.581,319.022 325.5,313.5C 325.437,311.486 326.103,309.819 327.5,308.5 Z"/></g>
<g><path style="opacity:1" fill="#f2f9fd" d="M 145.5,311.5 C 165.868,310.358 174.368,319.692 171,339.5C 165.459,349.684 156.959,353.518 145.5,351C 142.922,349.335 140.255,348.335 137.5,348C 132.985,352.682 128.319,357.182 123.5,361.5C 122.417,360.635 122.251,359.635 123,358.5C 127.682,353.985 132.182,349.319 136.5,344.5C 128.263,330.33 131.263,319.33 145.5,311.5 Z"/></g>
<g><path style="opacity:1" fill="#909194" d="M 193.5,304.5 C 197.007,303.994 200.174,304.66 203,306.5C 203.839,309.14 203.339,311.473 201.5,313.5C 205.053,321.221 204.386,321.388 199.5,314C 198.207,313.51 196.873,313.343 195.5,313.5C 195.799,315.604 195.466,317.604 194.5,319.5C 193.506,314.544 193.173,309.544 193.5,304.5 Z"/></g>
<g><path style="opacity:1" fill="#f7f7f8" d="M 195.5,306.5 C 197.5,306.5 199.5,306.5 201.5,306.5C 201.5,308.167 201.5,309.833 201.5,311.5C 199.5,311.5 197.5,311.5 195.5,311.5C 195.5,309.833 195.5,308.167 195.5,306.5 Z"/></g>
<g><path style="opacity:1" fill="#98999b" d="M 208.5,308.5 C 213.339,307.677 215.673,309.677 215.5,314.5C 213.167,314.5 210.833,314.5 208.5,314.5C 208.5,315.5 208.5,316.5 208.5,317.5C 210.78,317.254 212.78,317.254 214.5,317.5C 212.085,320.128 209.585,320.128 207,317.5C 206.068,314.177 206.568,311.177 208.5,308.5 Z"/></g>
<g><path style="opacity:1" fill="#a7a7a9" d="M 286.5,308.5 C 288.792,308.244 290.959,308.577 293,309.5C 293.824,312.882 293.657,316.216 292.5,319.5C 290.071,319.579 287.571,319.245 285,318.5C 284.438,313.888 286.605,311.554 291.5,311.5C 291.113,310.28 290.28,309.613 289,309.5C 285.067,312.461 284.234,312.128 286.5,308.5 Z"/></g>
<g><path style="opacity:1" fill="#8f9092" d="M 264.5,308.5 C 267.346,308.03 269.679,308.863 271.5,311C 269.893,311.115 268.393,310.615 267,309.5C 265.72,309.613 264.887,310.28 264.5,311.5C 266.289,312.877 268.289,313.877 270.5,314.5C 271.214,318.923 269.214,320.423 264.5,319C 263.833,318.333 263.167,317.667 262.5,317C 264.107,316.885 265.607,317.385 267,318.5C 268.28,318.387 269.113,317.72 269.5,316.5C 267.434,315.094 265.268,313.76 263,312.5C 262.7,310.934 263.2,309.601 264.5,308.5 Z"/></g>
<g><path style="opacity:1" fill="#31588f" d="M 147.5,317.5 C 161.155,315.99 167.322,321.99 166,335.5C 161.249,344.972 154.082,347.472 144.5,343C 142.077,341.429 140.744,339.263 140.5,336.5C 143.298,338.423 146.298,340.256 149.5,342C 160.37,342.461 164.87,337.294 163,326.5C 160.929,322.047 157.429,320.047 152.5,320.5C 148.331,320.151 145.164,321.818 143,325.5C 142.79,326.803 142.957,328.136 143.5,329.5C 143.02,332.492 141.353,333.659 138.5,333C 136.963,331.89 136.297,330.39 136.5,328.5C 137.5,328.5 138.5,328.5 139.5,328.5C 140.449,323.609 143.116,319.942 147.5,317.5 Z"/></g>
<g><path style="opacity:1" fill="#2d5488" d="M 150.5,323.5 C 151.5,323.5 152.5,323.5 153.5,323.5C 152.594,328.846 154.261,333.012 158.5,336C 158.167,336.5 157.833,337 157.5,337.5C 150.948,335.171 148.615,330.504 150.5,323.5 Z"/></g>
<g><path style="opacity:1" fill="#aaabae" d="M 393.5,336.5 C 394.809,338.571 395.475,341.071 395.5,344C 395.167,346.5 394.833,349 394.5,351.5C 393.506,346.544 393.173,341.544 393.5,336.5 Z"/></g>
<g><path style="opacity:1" fill="#96979a" d="M 389.5,337.5 C 390.805,339.397 391.471,341.731 391.5,344.5C 391.167,346.833 390.833,349.167 390.5,351.5C 389.507,346.88 389.173,342.214 389.5,337.5 Z"/></g>
<g><path style="opacity:1" fill="#97979a" d="M 192.5,337.5 C 194.605,338.987 196.272,340.987 197.5,343.5C 198.752,341.999 199.752,340.332 200.5,338.5C 201.167,337.167 201.833,337.167 202.5,338.5C 199.988,342.521 198.321,346.855 197.5,351.5C 196.784,346.466 195.118,341.8 192.5,337.5 Z"/></g>
<g><path style="opacity:1" fill="#919294" d="M 214.5,341.5 C 215.314,343.631 215.814,345.964 216,348.5C 217.333,349.833 218.667,349.833 220,348.5C 220.333,346.167 220.667,343.833 221,341.5C 221.821,344.554 221.655,347.554 220.5,350.5C 218.629,351.767 216.796,351.767 215,350.5C 214.502,347.518 214.335,344.518 214.5,341.5 Z"/></g>
<g><path style="opacity:1" fill="#9a9b9d" d="M 281.5,338.5 C 283.026,339.105 284.026,340.271 284.5,342C 283.685,345.245 283.352,348.412 283.5,351.5C 282.201,348.367 280.867,345.2 279.5,342C 280.973,341.29 281.64,340.124 281.5,338.5 Z"/></g>
<g><path style="opacity:1" fill="#979899" d="M 384.5,341.5 C 385.777,342.694 386.444,344.36 386.5,346.5C 386.167,348.167 385.833,349.833 385.5,351.5C 384.513,348.232 384.18,344.898 384.5,341.5 Z"/></g>
<g><path style="opacity:1" fill="#a3a4a6" d="M 242.5,341.5 C 246.938,340.425 248.938,342.092 248.5,346.5C 246.396,346.201 244.396,346.534 242.5,347.5C 242.709,348.086 243.043,348.586 243.5,349C 245.424,349.179 247.091,349.346 248.5,349.5C 244.311,352.55 241.644,351.384 240.5,346C 240.519,344.167 241.185,342.667 242.5,341.5 Z"/></g>
<g><path style="opacity:1" fill="#97989a" d="M 252.5,341.5 C 254.977,341.051 256.977,341.717 258.5,343.5C 256.982,342.696 255.148,342.696 253,343.5C 252.333,345.167 252.333,346.833 253,348.5C 254.994,349.279 256.828,349.613 258.5,349.5C 255.658,352.283 253.158,351.95 251,348.5C 250.167,345.829 250.667,343.496 252.5,341.5 Z"/></g>
<g><path style="opacity:1" fill="#979799" d="M 328.5,341.5 C 330.977,341.051 332.977,341.717 334.5,343.5C 332.982,342.696 331.148,342.696 329,343.5C 328.333,345.167 328.333,346.833 329,348.5C 330.889,349.097 332.722,349.431 334.5,349.5C 331.658,352.283 329.158,351.95 327,348.5C 326.167,345.829 326.667,343.496 328.5,341.5 Z"/></g>
<g><path style="opacity:1" fill="#b0b0b2" d="M 224.5,341.5 C 225.873,341.343 227.207,341.51 228.5,342C 226.961,344.878 225.961,348.045 225.5,351.5C 224.513,348.232 224.18,344.898 224.5,341.5 Z"/></g>
<g><path style="opacity:1" fill="#afb0b2" d="M 235.5,341.5 C 236.873,341.343 238.207,341.51 239.5,342C 237.961,344.878 236.961,348.045 236.5,351.5C 235.513,348.232 235.18,344.898 235.5,341.5 Z"/></g>
<g><path style="opacity:1" fill="#a4a5a6" d="M 302.5,341.5 C 306.938,340.425 308.938,342.092 308.5,346.5C 306.396,346.201 304.396,346.534 302.5,347.5C 302.709,348.086 303.043,348.586 303.5,349C 305.313,348.954 306.979,349.12 308.5,349.5C 304.162,352.753 301.495,351.753 300.5,346.5C 300.437,344.486 301.103,342.819 302.5,341.5 Z"/></g>
<g><path style="opacity:1" fill="#979799" d="M 320.5,341.5 C 322.199,341.34 323.866,341.506 325.5,342C 324.584,342.374 323.75,342.874 323,343.5C 322.818,346.226 322.318,348.893 321.5,351.5C 320.513,348.232 320.18,344.898 320.5,341.5 Z"/></g>
<g><path style="opacity:1" fill="#969799" d="M 336.5,337.5 C 338.176,338.183 338.843,339.517 338.5,341.5C 340.467,341.261 342.301,341.594 344,342.5C 344.821,345.554 344.655,348.554 343.5,351.5C 342.516,348.572 342.183,345.572 342.5,342.5C 341.178,342.33 340.011,342.663 339,343.5C 338.818,346.226 338.318,348.893 337.5,351.5C 336.507,346.88 336.173,342.214 336.5,337.5 Z"/></g>
<g><path style="opacity:1" fill="#a3a3a5" d="M 348.5,341.5 C 352.938,340.425 354.938,342.092 354.5,346.5C 352.5,346.5 350.5,346.5 348.5,346.5C 348.5,347.5 348.5,348.5 348.5,349.5C 350.674,349.08 352.674,349.08 354.5,349.5C 348.196,352.712 345.696,350.712 347,343.5C 347.717,342.956 348.217,342.289 348.5,341.5 Z"/></g>
<g><path style="opacity:1" fill="#a4a5a7" d="M 262.5,341.5 C 266.938,340.425 268.938,342.092 268.5,346.5C 266.396,346.201 264.396,346.534 262.5,347.5C 262.709,348.086 263.043,348.586 263.5,349C 265.313,348.954 266.979,349.12 268.5,349.5C 264.162,352.753 261.495,351.753 260.5,346.5C 260.437,344.486 261.103,342.819 262.5,341.5 Z"/></g>
<g><path style="opacity:1" fill="#97989a" d="M 270.5,341.5 C 273.119,341.232 275.619,341.565 278,342.5C 278.821,345.554 278.655,348.554 277.5,351.5C 276.516,348.572 276.183,345.572 276.5,342.5C 275.178,342.33 274.011,342.663 273,343.5C 272.818,346.226 272.318,348.893 271.5,351.5C 270.513,348.232 270.18,344.898 270.5,341.5 Z"/></g>
<g><path style="opacity:1" fill="#9a9b9d" d="M 292.5,341.5 C 294.977,341.051 296.977,341.717 298.5,343.5C 298.167,343.833 297.833,344.167 297.5,344.5C 295.991,342.085 294.324,341.919 292.5,344C 294.219,345.057 296.053,345.89 298,346.5C 298.339,350.487 296.506,351.987 292.5,351C 291.643,350.311 290.977,349.478 290.5,348.5C 292.366,348.902 294.366,348.902 296.5,348.5C 295.345,347.05 293.845,346.05 292,345.5C 291.421,344.072 291.588,342.738 292.5,341.5 Z"/></g>
<g><path style="opacity:1" fill="#9fa0a2" d="M 205.5,341.5 C 211,340.831 213.167,343.165 212,348.5C 205.679,353.204 203.012,351.538 204,343.5C 204.717,342.956 205.217,342.289 205.5,341.5 Z"/></g>
<g><path style="opacity:1" fill="#fafafb" d="M 206.5,342.5 C 210.473,343.075 211.473,345.242 209.5,349C 208.216,349.684 207.049,349.517 206,348.5C 205.322,346.402 205.489,344.402 206.5,342.5 Z"/></g>
<g><path style="opacity:1" fill="#9e9ea1" d="M 370.5,341.5 C 371.675,342.974 372.675,344.64 373.5,346.5C 375.535,339.937 377.368,339.937 379,346.5C 379.98,344.941 380.813,343.274 381.5,341.5C 382.416,344.727 381.75,347.727 379.5,350.5C 378.333,348.833 377.167,347.167 376,345.5C 375.64,347.421 374.806,349.088 373.5,350.5C 371.736,347.785 370.736,344.785 370.5,341.5 Z"/></g>
<g><path style="opacity:1" fill="#98989a" d="M 311.5,341.5 C 313.527,341.338 315.527,341.505 317.5,342C 318.787,345.125 318.787,348.291 317.5,351.5C 315.979,351.12 314.313,350.954 312.5,351C 309.457,346.511 310.791,344.678 316.5,345.5C 316.5,344.5 316.5,343.5 316.5,342.5C 314.856,342.286 313.356,342.62 312,343.5C 311.536,342.906 311.369,342.239 311.5,341.5 Z"/></g>
<g><path style="opacity:1" fill="#fafbfb" d="M 312.5,346.5 C 313.978,346.238 315.311,346.571 316.5,347.5C 315.68,349.111 314.346,349.778 312.5,349.5C 312.5,348.5 312.5,347.5 312.5,346.5 Z"/></g>
<g><path style="opacity:1" fill="#9a9b9d" d="M 357.5,341.5 C 359.5,341.5 361.5,341.5 363.5,341.5C 363.649,342.552 363.483,343.552 363,344.5C 361.759,342.579 360.259,342.246 358.5,343.5C 360.751,344.818 362.751,346.484 364.5,348.5C 362.085,352.268 359.419,352.434 356.5,349C 364.259,349.514 364.426,348.347 357,345.5C 356.421,344.072 356.588,342.738 357.5,341.5 Z"/></g>
<g><path style="opacity:1" fill="#8f9092" d="M 255.5,358.5 C 257.176,359.183 257.843,360.517 257.5,362.5C 259.144,362.286 260.644,362.62 262,363.5C 262.667,366.5 262.667,369.5 262,372.5C 261.503,369.854 261.336,367.187 261.5,364.5C 259.856,364.286 258.356,364.62 257,365.5C 256.667,367.833 256.333,370.167 256,372.5C 255.501,367.845 255.334,363.179 255.5,358.5 Z"/></g>
<g><path style="opacity:1" fill="#9e9fa0" d="M 244.5,362.5 C 246.288,362.215 247.955,362.548 249.5,363.5C 248.675,364.386 247.675,364.719 246.5,364.5C 246.813,367.247 246.48,369.914 245.5,372.5C 244.513,369.232 244.18,365.898 244.5,362.5 Z"/></g>
<g><path style="opacity:1" fill="#9e9fa1" d="M 275.5,362.5 C 277.288,362.215 278.955,362.548 280.5,363.5C 279.675,364.386 278.675,364.719 277.5,364.5C 277.813,367.247 277.48,369.914 276.5,372.5C 275.513,369.232 275.18,365.898 275.5,362.5 Z"/></g>
<g><path style="opacity:1" fill="#999a9c" d="M 203.5,362.5 C 210,361.499 212.5,364.165 211,370.5C 209.556,372.155 207.722,372.822 205.5,372.5C 205.762,373.978 205.429,375.311 204.5,376.5C 203.507,371.88 203.173,367.214 203.5,362.5 Z"/></g>
<g><path style="opacity:1" fill="#f0f1f1" d="M 204.5,364.5 C 206.167,364.5 207.833,364.5 209.5,364.5C 209.662,366.527 209.495,368.527 209,370.5C 207.887,371.711 206.72,371.711 205.5,370.5C 204.534,368.604 204.201,366.604 204.5,364.5 Z"/></g>
<g><path style="opacity:1" fill="#9a9a9c" d="M 283.5,362.5 C 287.833,362.167 289.833,364.167 289.5,368.5C 287.396,368.201 285.396,368.534 283.5,369.5C 284.748,371.69 286.414,372.023 288.5,370.5C 289.696,370.846 289.696,371.346 288.5,372C 284.167,373.489 281.833,371.989 281.5,367.5C 281.437,365.486 282.103,363.819 283.5,362.5 Z"/></g>
<g><path style="opacity:1" fill="#fafbfb" d="M 283.5,364.5 C 284.978,364.238 286.311,364.571 287.5,365.5C 286.833,365.833 286.167,366.167 285.5,366.5C 284.287,366.253 283.62,365.586 283.5,364.5 Z"/></g>
<g><path style="opacity:1" fill="#aaaaac" d="M 226.5,362.5 C 230.697,362.194 232.697,364.194 232.5,368.5C 230.143,368.337 227.81,368.503 225.5,369C 227.05,371.459 229.05,372.126 231.5,371C 227.15,373.696 224.483,372.529 223.5,367.5C 224.092,365.577 225.092,363.911 226.5,362.5 Z"/></g>
<g><path style="opacity:1" fill="#aaaaac" d="M 267.5,362.5 C 271.697,362.194 273.697,364.194 273.5,368.5C 271.143,368.337 268.81,368.503 266.5,369C 268.05,371.459 270.05,372.126 272.5,371C 268.15,373.696 265.483,372.529 264.5,367.5C 265.092,365.577 266.092,363.911 267.5,362.5 Z"/></g>
<g><path style="opacity:1" fill="#98999c" d="M 213.5,362.5 C 215.681,362.914 218.015,363.081 220.5,363C 223.919,369 222.252,372.166 215.5,372.5C 215.762,373.978 215.429,375.311 214.5,376.5C 213.507,371.88 213.173,367.214 213.5,362.5 Z"/></g>
<g><path style="opacity:1" fill="#f6f6f7" d="M 215.5,364.5 C 219.677,363.842 221.177,365.508 220,369.5C 219.047,371.592 217.714,371.925 216,370.5C 215.505,368.527 215.338,366.527 215.5,364.5 Z"/></g>
<g><path style="opacity:1" fill="#959698" d="M 194.5,362.5 C 196.467,362.261 198.301,362.594 200,363.5C 200.498,366.482 200.665,369.482 200.5,372.5C 198.208,372.756 196.041,372.423 194,371.5C 192.948,367.707 194.448,365.707 198.5,365.5C 197.224,364.355 195.891,364.355 194.5,365.5C 193.438,364.575 193.438,363.575 194.5,362.5 Z"/></g>
<g><path style="opacity:1" fill="#e5e5e6" d="M 195.5,367.5 C 196.833,367.5 198.167,367.5 199.5,367.5C 199.55,369.59 198.55,370.923 196.5,371.5C 194.358,370.563 194.024,369.23 195.5,367.5 Z"/></g>
<g><path style="opacity:1" fill="#959597" d="M 235.5,362.5 C 237.467,362.261 239.301,362.594 241,363.5C 241.498,366.482 241.665,369.482 241.5,372.5C 239.208,372.756 237.041,372.423 235,371.5C 233.948,367.707 235.448,365.707 239.5,365.5C 238.224,364.355 236.891,364.355 235.5,365.5C 234.438,364.575 234.438,363.575 235.5,362.5 Z"/></g>
<g><path style="opacity:1" fill="#e5e5e6" d="M 236.5,367.5 C 237.833,367.5 239.167,367.5 240.5,367.5C 240.55,369.59 239.55,370.923 237.5,371.5C 235.358,370.563 235.024,369.23 236.5,367.5 Z"/></g>
<g><path style="opacity:1" fill="#434443" d="M -0.5,1102.5 C 179.5,1102.5 359.5,1102.5 539.5,1102.5C 539.5,1103.83 539.5,1105.17 539.5,1106.5C 359.5,1106.5 179.5,1106.5 -0.5,1106.5C -0.5,1105.17 -0.5,1103.83 -0.5,1102.5 Z"/></g>
<g><path style="opacity:1" fill="#000000" d="M -0.5,1106.5 C 179.5,1106.5 359.5,1106.5 539.5,1106.5C 539.5,1127.5 539.5,1148.5 539.5,1169.5C 359.5,1169.5 179.5,1169.5 -0.5,1169.5C -0.5,1148.5 -0.5,1127.5 -0.5,1106.5 Z"/></g>
<g><path style="opacity:1" fill="#fefefe" d="M 448.5,1132.5 C 450.337,1132.64 450.67,1133.31 449.5,1134.5C 448.702,1134.04 448.369,1133.38 448.5,1132.5 Z"/></g>
<g><path style="opacity:1" fill="#fefffe" d="M 452.5,1132.5 C 454.337,1132.64 454.67,1133.31 453.5,1134.5C 452.702,1134.04 452.369,1133.38 452.5,1132.5 Z"/></g>
<g><path style="opacity:1" fill="#dedede" d="M 456.5,1132.5 C 457.675,1132.28 458.675,1132.61 459.5,1133.5C 457.948,1134.8 456.948,1134.46 456.5,1132.5 Z"/></g>
<g><path style="opacity:1" fill="#fefffe" d="M 461.5,1132.5 C 463.337,1132.64 463.67,1133.31 462.5,1134.5C 461.702,1134.04 461.369,1133.38 461.5,1132.5 Z"/></g>
<g><path style="opacity:1" fill="#dddddd" d="M 465.5,1132.5 C 466.675,1132.28 467.675,1132.61 468.5,1133.5C 466.948,1134.8 465.948,1134.46 465.5,1132.5 Z"/></g>
<g><path style="opacity:1" fill="#fefffe" d="M 74.5,1134.5 C 77.0562,1135.54 79.2228,1137.21 81,1139.5C 82.6667,1137.83 84.3333,1136.17 86,1134.5C 85.253,1137.44 83.4196,1139.78 80.5,1141.5C 77.7341,1139.74 75.7341,1137.41 74.5,1134.5 Z"/></g>
<g><path style="opacity:1" fill="#dedede" d="M 448.5,1136.5 C 450.465,1136.95 450.798,1137.95 449.5,1139.5C 448.614,1138.68 448.281,1137.68 448.5,1136.5 Z"/></g>
<g><path style="opacity:1" fill="#dedede" d="M 452.5,1136.5 C 454.465,1136.95 454.798,1137.95 453.5,1139.5C 452.614,1138.68 452.281,1137.68 452.5,1136.5 Z"/></g>
<g><path style="opacity:1" fill="#b8b8b8" d="M 456.5,1136.5 C 457.5,1136.5 458.5,1136.5 459.5,1136.5C 459.5,1137.5 459.5,1138.5 459.5,1139.5C 458.5,1139.5 457.5,1139.5 456.5,1139.5C 456.5,1138.5 456.5,1137.5 456.5,1136.5 Z"/></g>
<g><path style="opacity:1" fill="#dedede" d="M 461.5,1136.5 C 463.465,1136.95 463.798,1137.95 462.5,1139.5C 461.614,1138.68 461.281,1137.68 461.5,1136.5 Z"/></g>
<g><path style="opacity:1" fill="#b6b6b6" d="M 465.5,1136.5 C 466.5,1136.5 467.5,1136.5 468.5,1136.5C 468.5,1137.5 468.5,1138.5 468.5,1139.5C 467.5,1139.5 466.5,1139.5 465.5,1139.5C 465.5,1138.5 465.5,1137.5 465.5,1136.5 Z"/></g>
<g><path style="opacity:1" fill="#fefffe" d="M 452.5,1141.5 C 456.226,1141.18 459.893,1141.51 463.5,1142.5C 461.667,1142.83 459.833,1143.17 458,1143.5C 455.705,1143.45 453.871,1142.79 452.5,1141.5 Z"/></g>
<g><path style="opacity:1" fill="#d9d9d9" d="M 199.5,1150.5 C 245.835,1150.33 292.168,1150.5 338.5,1151C 341.167,1152.67 341.167,1154.33 338.5,1156C 292.167,1156.67 245.833,1156.67 199.5,1156C 198.248,1154.17 198.248,1152.34 199.5,1150.5 Z"/></g>
</svg>
